<?xml version="1.0" ?>
<!-- Generator: Adobe Illustrator 13.0.2, SVG Export Plug-In . SVG Version: 6.00 Build 14948)  --><!DOCTYPE svg
  PUBLIC '-//W3C//DTD SVG 1.1//EN'
  'http://www.w3.org/Graphics/SVG/1.1/DTD/svg11.dtd' [
	<!ENTITY stroke_color "#000000">
	<!ENTITY fill_color "#ffffff">
]>
<svg enable-background="new 0 0 800 800" height="800px" id="Layer_1" version="1.1" viewBox="0 0 800 800" width="800px" x="0px" xml:space="preserve" xmlns="http://www.w3.org/2000/svg" xmlns:xlink="http://www.w3.org/1999/xlink" y="0px">
<path d="M786.144,398.984c0,213.323-172.96,386.283-386.284,386.283  c-213.353,0-386.298-172.96-386.298-386.283c0-213.354,172.946-386.3,386.298-386.3C613.184,12.684,786.144,185.629,786.144,398.984  z" fill="&fill_color;" stroke="&stroke_color;" stroke-width="4"/>
<path d="M680.646,398.984c0,155.063-125.721,280.784-280.786,280.784  c-155.086,0-280.791-125.721-280.791-280.784c0-155.088,125.704-280.801,280.791-280.801  C554.925,118.183,680.646,243.896,680.646,398.984z" fill="&fill_color;" stroke="&stroke_color;" stroke-width="4"/>
<path d="M458.889,120.808c0,33.113-26.837,59.958-59.951,59.958  c-33.116,0-59.952-26.845-59.952-59.958c0-33.107,26.836-59.952,59.952-59.952C432.052,60.856,458.889,87.701,458.889,120.808z" fill="&fill_color;" stroke="&stroke_color;" stroke-width="4"/>
<path d="M458.628,676.581c0,33.101-26.838,59.952-59.937,59.952  c-33.115,0-59.959-26.852-59.959-59.952c0-33.129,26.845-59.966,59.959-59.966C431.79,616.615,458.628,643.452,458.628,676.581z" fill="&fill_color;" stroke="&stroke_color;" stroke-width="4"/>
<path d="M219.836,262.722c0,33.107-26.836,59.952-59.951,59.952  c-33.107,0-59.951-26.845-59.951-59.952c0-33.113,26.843-59.951,59.951-59.951C193,202.771,219.836,229.608,219.836,262.722z" fill="&fill_color;" stroke="&stroke_color;" stroke-width="4"/>
<path d="M220.345,538.459c0,33.101-26.845,59.952-59.952,59.952  c-33.115,0-59.959-26.852-59.959-59.952c0-33.114,26.845-59.951,59.959-59.951C193.5,478.508,220.345,505.345,220.345,538.459z" fill="&fill_color;" stroke="&stroke_color;" stroke-width="4"/>
<path d="M695.4,263.23c0,33.114-26.836,59.951-59.951,59.951  c-33.1,0-59.95-26.836-59.95-59.951c0-33.107,26.851-59.951,59.95-59.951C668.564,203.279,695.4,230.123,695.4,263.23z" fill="&fill_color;" stroke="&stroke_color;" stroke-width="4"/>
<path d="M698.709,537.705c0,33.101-26.851,59.951-59.966,59.951  c-33.116,0-59.952-26.851-59.952-59.951c0-33.1,26.836-59.95,59.952-59.95C671.858,477.755,698.709,504.605,698.709,537.705z" fill="&fill_color;" stroke="&stroke_color;" stroke-width="4"/>
<path d="M326.337,323.198c0,33.113-26.845,59.951-59.959,59.951  c-33.107,0-59.944-26.837-59.944-59.951c0-33.116,26.836-59.961,59.944-59.961C299.492,263.237,326.337,290.083,326.337,323.198z" fill="&fill_color;" stroke="&stroke_color;" stroke-width="4"/>
<path d="M457.872,243.265c0,33.107-26.852,59.945-59.95,59.945  c-33.115,0-59.953-26.838-59.953-59.945c0-33.123,26.838-59.959,59.953-59.959C431.021,183.305,457.872,210.142,457.872,243.265z" fill="&fill_color;" stroke="&stroke_color;" stroke-width="4"/>
<path d="M589.425,324.713c0,33.107-26.853,59.959-59.951,59.959  c-33.115,0-59.967-26.852-59.967-59.959c0-33.106,26.852-59.959,59.967-59.959C562.572,264.753,589.425,291.607,589.425,324.713z" fill="&fill_color;" stroke="&stroke_color;" stroke-width="4"/>
<path d="M328.106,476.23c0,33.115-26.836,59.936-59.951,59.936  c-33.116,0-59.952-26.82-59.952-59.936c0-33.131,26.836-59.967,59.952-59.967C301.27,416.264,328.106,443.1,328.106,476.23z" fill="&fill_color;" stroke="&stroke_color;" stroke-width="4"/>
<path d="M458.135,554.14c0,33.116-26.853,59.952-59.967,59.952  c-33.1,0-59.936-26.836-59.936-59.952c0-33.131,26.836-59.952,59.936-59.952C431.282,494.188,458.135,521.009,458.135,554.14z" fill="&fill_color;" stroke="&stroke_color;" stroke-width="4"/>
<path d="M591.688,477.23c0,33.115-26.821,59.952-59.952,59.952  c-33.116,0-59.952-26.837-59.952-59.952s26.836-59.936,59.952-59.936C564.866,417.295,591.688,444.115,591.688,477.23z" fill="&fill_color;" stroke="&stroke_color;" stroke-width="4"/>
<path d="M490.772,400.076c0,50.719-41.116,91.82-91.835,91.82  s-91.828-41.102-91.828-91.82c0-50.705,41.109-91.82,91.828-91.82S490.772,349.372,490.772,400.076z" fill="&fill_color;" stroke="&stroke_color;" stroke-width="4"/>
</svg>