<?xml version="1.0" encoding="UTF-8" standalone="no"?>
<!-- Generator: Adobe Illustrator 13.0.2, SVG Export Plug-In . SVG Version: 6.00 Build 14948)  -->
<svg
   xmlns:dc="http://purl.org/dc/elements/1.1/"
   xmlns:cc="http://creativecommons.org/ns#"
   xmlns:rdf="http://www.w3.org/1999/02/22-rdf-syntax-ns#"
   xmlns:svg="http://www.w3.org/2000/svg"
   xmlns="http://www.w3.org/2000/svg"
   xmlns:sodipodi="http://sodipodi.sourceforge.net/DTD/sodipodi-0.dtd"
   xmlns:inkscape="http://www.inkscape.org/namespaces/inkscape"
   enable-background="new 0 0 800 800"
   height="800px"
   id="Layer_1"
   version="1.1"
   viewBox="0 0 800 800"
   width="800px"
   x="0px"
   xml:space="preserve"
   y="0px"
   sodipodi:version="0.32"
   inkscape:version="0.46"
   sodipodi:docname="cell-icon.sugar.svg"
   inkscape:output_extension="org.inkscape.output.svg.inkscape"><metadata
   id="metadata36"><rdf:RDF><cc:Work
       rdf:about=""><dc:format>image/svg+xml</dc:format><dc:type
         rdf:resource="http://purl.org/dc/dcmitype/StillImage" /></cc:Work></rdf:RDF></metadata><defs
   id="defs34"><inkscape:perspective
     sodipodi:type="inkscape:persp3d"
     inkscape:vp_x="0 : 400 : 1"
     inkscape:vp_y="0 : 1000 : 0"
     inkscape:vp_z="800 : 400 : 1"
     inkscape:persp3d-origin="400 : 266.66667 : 1"
     id="perspective38" /></defs><sodipodi:namedview
   inkscape:window-height="723"
   inkscape:window-width="645"
   inkscape:pageshadow="2"
   inkscape:pageopacity="0.0"
   guidetolerance="10.0"
   gridtolerance="10.0"
   objecttolerance="10.0"
   borderopacity="1.0"
   bordercolor="#666666"
   pagecolor="#ffffff"
   id="base"
   showgrid="false"
   inkscape:zoom="0.6175"
   inkscape:cx="400"
   inkscape:cy="400"
   inkscape:window-x="369"
   inkscape:window-y="25"
   inkscape:current-layer="Layer_1" />
<path
   d="M786.144,398.984c0,213.323-172.96,386.283-386.284,386.283  c-213.353,0-386.298-172.96-386.298-386.283c0-213.354,172.946-386.3,386.298-386.3C613.184,12.684,786.144,185.629,786.144,398.984  z"
   fill="#ffffff"
   stroke="#000000"
   stroke-width="4"
   id="path3" />
<path
   d="M680.646,398.984c0,155.063-125.721,280.784-280.786,280.784  c-155.086,0-280.791-125.721-280.791-280.784c0-155.088,125.704-280.801,280.791-280.801  C554.925,118.183,680.646,243.896,680.646,398.984z"
   fill="#ffffff"
   stroke="#000000"
   stroke-width="4"
   id="path5" />
<path
   d="M458.889,120.808c0,33.113-26.837,59.958-59.951,59.958  c-33.116,0-59.952-26.845-59.952-59.958c0-33.107,26.836-59.952,59.952-59.952C432.052,60.856,458.889,87.701,458.889,120.808z"
   fill="#ffffff"
   stroke="#000000"
   stroke-width="4"
   id="path7" />
<path
   d="M458.628,676.581c0,33.101-26.838,59.952-59.937,59.952  c-33.115,0-59.959-26.852-59.959-59.952c0-33.129,26.845-59.966,59.959-59.966C431.79,616.615,458.628,643.452,458.628,676.581z"
   fill="#ffffff"
   stroke="#000000"
   stroke-width="4"
   id="path9" />
<path
   d="M219.836,262.722c0,33.107-26.836,59.952-59.951,59.952  c-33.107,0-59.951-26.845-59.951-59.952c0-33.113,26.843-59.951,59.951-59.951C193,202.771,219.836,229.608,219.836,262.722z"
   fill="#ffffff"
   stroke="#000000"
   stroke-width="4"
   id="path11" />
<path
   d="M220.345,538.459c0,33.101-26.845,59.952-59.952,59.952  c-33.115,0-59.959-26.852-59.959-59.952c0-33.114,26.845-59.951,59.959-59.951C193.5,478.508,220.345,505.345,220.345,538.459z"
   fill="#ffffff"
   stroke="#000000"
   stroke-width="4"
   id="path13" />
<path
   d="M695.4,263.23c0,33.114-26.836,59.951-59.951,59.951  c-33.1,0-59.95-26.836-59.95-59.951c0-33.107,26.851-59.951,59.95-59.951C668.564,203.279,695.4,230.123,695.4,263.23z"
   fill="#ffffff"
   stroke="#000000"
   stroke-width="4"
   id="path15" />
<path
   d="M698.709,537.705c0,33.101-26.851,59.951-59.966,59.951  c-33.116,0-59.952-26.851-59.952-59.951c0-33.1,26.836-59.95,59.952-59.95C671.858,477.755,698.709,504.605,698.709,537.705z"
   fill="#ffffff"
   stroke="#000000"
   stroke-width="4"
   id="path17" />
<path
   d="M326.337,323.198c0,33.113-26.845,59.951-59.959,59.951  c-33.107,0-59.944-26.837-59.944-59.951c0-33.116,26.836-59.961,59.944-59.961C299.492,263.237,326.337,290.083,326.337,323.198z"
   fill="#ffffff"
   stroke="#000000"
   stroke-width="4"
   id="path19" />
<path
   d="M457.872,243.265c0,33.107-26.852,59.945-59.95,59.945  c-33.115,0-59.953-26.838-59.953-59.945c0-33.123,26.838-59.959,59.953-59.959C431.021,183.305,457.872,210.142,457.872,243.265z"
   fill="#ffffff"
   stroke="#000000"
   stroke-width="4"
   id="path21" />
<path
   d="M589.425,324.713c0,33.107-26.853,59.959-59.951,59.959  c-33.115,0-59.967-26.852-59.967-59.959c0-33.106,26.852-59.959,59.967-59.959C562.572,264.753,589.425,291.607,589.425,324.713z"
   fill="#ffffff"
   stroke="#000000"
   stroke-width="4"
   id="path23" />
<path
   d="M328.106,476.23c0,33.115-26.836,59.936-59.951,59.936  c-33.116,0-59.952-26.82-59.952-59.936c0-33.131,26.836-59.967,59.952-59.967C301.27,416.264,328.106,443.1,328.106,476.23z"
   fill="#ffffff"
   stroke="#000000"
   stroke-width="4"
   id="path25" />
<path
   d="M458.135,554.14c0,33.116-26.853,59.952-59.967,59.952  c-33.1,0-59.936-26.836-59.936-59.952c0-33.131,26.836-59.952,59.936-59.952C431.282,494.188,458.135,521.009,458.135,554.14z"
   fill="#ffffff"
   stroke="#000000"
   stroke-width="4"
   id="path27" />
<path
   d="M591.688,477.23c0,33.115-26.821,59.952-59.952,59.952  c-33.116,0-59.952-26.837-59.952-59.952s26.836-59.936,59.952-59.936C564.866,417.295,591.688,444.115,591.688,477.23z"
   fill="#ffffff"
   stroke="#000000"
   stroke-width="4"
   id="path29" />
<path
   d="M490.772,400.076c0,50.719-41.116,91.82-91.835,91.82  s-91.828-41.102-91.828-91.82c0-50.705,41.109-91.82,91.828-91.82S490.772,349.372,490.772,400.076z"
   fill="#ffffff"
   stroke="#000000"
   stroke-width="4"
   id="path31" />
<path
   style="fill:#00ffff"
   d="M 355.1417,779.97772 C 321.36688,776.16889 275.70486,763.63584 244.9004,749.71929 C 120.27331,693.41645 36.940421,581.03072 18.969182,445.02024 C 16.411579,425.66374 16.416162,370.90821 18.976907,352.71255 C 27.733231,290.49333 47.712891,236.39841 79.538883,188.74104 C 96.415045,163.47009 109.13513,147.86499 129.27147,127.72863 C 186.85898,70.141134 261.14763,32.576 343.05368,19.626559 C 369.09747,15.509004 431.82267,15.51519 457.16599,19.637798 C 628.56351,47.519109 756.82591,179.01791 780.46363,351.09312 C 783.23163,371.24327 783.23161,428.66988 780.4636,447.44939 C 762.0514,572.36599 693.83279,672.88526 585.91093,734.12015 C 544.44934,757.64549 490.54285,774.82236 441.44034,780.15462 C 422.93934,782.16371 373.62993,782.06266 355.1417,779.97772 z M 419.53315,735.4617 C 428.03639,732.75428 440.63982,723.9213 447.22502,716.05412 C 453.59726,708.44138 459.39819,694.72857 460.54917,684.55721 L 461.57283,675.51124 L 473.13457,672.53331 C 517.65435,661.06666 560.91194,636.67428 596.43725,603.00455 L 607.77328,592.26066 L 612.9886,594.70484 C 628.36641,601.91158 650.57482,601.48123 666.57883,593.66635 C 677.19963,588.48018 690.49498,574.7884 695.7036,563.67328 C 699.54585,555.47383 700.08097,552.35245 700.08097,538.13765 C 700.08097,523.35336 699.64249,521.02679 695.04509,511.417 C 690.16513,501.21657 681.94936,491.26408 674.23788,486.21132 L 670.48648,483.7533 L 673.68719,471.26936 C 685.52811,425.08512 685.8794,376.93457 674.71423,330.4867 L 671.12332,315.54832 L 678.98426,307.81464 C 699.99334,287.14557 703.68047,254.17247 687.75739,229.35849 C 672.28277,205.24342 642.2068,195.00039 614.70005,204.47723 L 608.31286,206.67777 L 596.70709,195.33234 C 563.12471,162.50342 516.04664,135.94698 472.14575,125.06808 L 461.21457,122.35927 L 461.21457,116.33194 C 461.21457,102.5485 450.81087,82.238364 438.98215,72.929733 C 414.58619,53.731304 383.21966,53.676583 358.927,72.790073 C 347.22586,81.996502 336.51822,103.27273 336.51822,117.31653 C 336.51822,122.21432 335.98193,122.76311 329.63563,124.35971 C 283.09362,136.0687 233.59155,164.23079 200.76316,197.67616 L 190.51417,208.11775 L 181.32998,204.34024 C 170.08518,199.71517 153.04419,199.2124 141.26015,203.15801 C 92.197927,219.58534 82.166316,281.80688 123.46065,313.56042 L 128.21684,317.21772 L 124.68823,332.13116 C 118.70806,357.40565 117.27789,370.29917 117.28585,398.8664 C 117.29393,428.03011 118.99798,442.80212 125.21668,467.61749 L 129.0533,482.92727 L 119.48782,491.58355 C 105.9424,503.84146 99.463077,517.36947 98.712777,534.95921 C 97.659401,559.65422 107.61598,578.95644 128.06708,591.86664 C 143.17432,601.4034 166.55985,603.37145 183.24729,596.51035 L 192.72938,592.61176 L 203.49019,603.17127 C 236.38734,635.45302 284.4303,662.19968 329.63563,673.39942 C 336.21953,675.03054 336.51822,675.37049 336.51822,681.23143 C 336.51822,694.96708 346.99189,715.18457 359.18303,724.98164 C 376.14577,738.61325 397.816,742.37639 419.53317,735.46168 L 419.53315,735.4617 z"
   id="path2411" /><path
   style="fill:#000080"
   d="M 323.56275,666.17508 C 292.8052,657.57608 258.69687,640.46371 232.3685,620.42228 C 220.42738,611.33265 201.83012,594.66418 199.9738,591.38747 C 199.05845,589.77168 200.80107,586.66042 205.64181,581.26795 C 221.08832,564.06097 225.59849,546.03998 220.59028,521.53972 L 219.51467,516.27783 L 225.78972,522.08313 C 250.51479,544.95721 290.32053,543.63177 313.19924,519.17258 C 324.05228,507.56985 329.03346,495.67307 329.76078,479.61814 L 330.35767,466.44279 L 340.69085,474.26394 C 351.54907,482.48249 361.87377,487.70917 373.36032,490.80223 C 381.30366,492.94118 382.03558,494.42162 375.90988,495.95908 C 369.1833,497.64732 355.50808,507.38918 349.67423,514.64862 C 321.79738,549.33765 337.86411,600.36423 381.02567,614.21815 C 383.57383,615.036 382.34279,616.01919 375.06873,618.9756 C 357.49909,626.11645 344.809,640.20649 338.84978,659.19028 C 335.6566,669.36262 335.39381,669.48269 323.56275,666.17504 L 323.56275,666.17508 z"
   id="path2413" /><path
   style="fill:#000080"
   d="M 460.57368,667.54829 C 460.0355,666.1458 459.59456,663.78256 459.59386,662.2967 C 459.59189,658.11014 450.59872,640.73606 445.52596,635.11864 C 438.95082,627.83757 430.12222,621.71751 421.43879,618.42134 L 413.86533,615.54654 L 424.18428,610.7177 C 461.11762,593.43448 471.89014,546.53718 446.33768,514.27457 C 440.44267,506.83148 423.53425,495.22267 418.58834,495.22267 C 413.45602,495.22267 416.26121,493.65817 429.91232,488.90709 C 444.09547,483.97083 453.50959,478.47657 463.42361,469.34921 L 470.12146,463.18287 L 470.15802,477.98818 C 470.19045,491.10909 470.76062,493.99113 475.16946,503.31984 C 491.97262,538.87381 536.41134,550.60298 568.16458,527.86499 L 577.00405,521.53516 L 577.00405,537.12387 C 577.00405,551.27639 577.47765,553.71228 582.14478,563.5639 C 585.03448,569.66366 590.65325,577.78301 594.97644,582.1062 L 602.66738,589.79712 L 591.45519,600.10737 C 558.88836,630.05399 526.27937,649.51883 486.84304,662.55203 C 463.55126,670.24967 461.74232,670.5937 460.5737,667.54834 L 460.57368,667.54829 z"
   id="path2415" /><path
   style="fill:#000080"
   d="M 459.3851,327.86526 C 449.87333,319.10525 434.23428,311.38243 418.91692,307.88138 L 406.96356,305.14921 L 413.04306,303.85364 C 435.84471,298.99427 455.62672,277.31953 459.34874,253.11741 C 463.70013,224.823 449.72173,198.86513 423.62424,186.77702 L 412.08191,181.4307 L 417.6199,180.23564 C 435.85545,176.3006 454.30449,156.58081 459.66421,135.29535 L 461.49929,128.00755 L 472.28813,130.80415 C 514.62748,141.77909 557.57606,166.06398 592.27895,198.6519 L 602.69555,208.43365 L 593.45785,217.30959 C 587.3124,223.21438 582.47033,229.87998 578.99268,237.22232 C 574.22575,247.28674 573.76518,249.63615 573.76518,263.88917 C 573.76518,278.07749 573.5121,279.38372 571.02136,278.05049 C 569.51231,277.24269 567.82102,275.84309 567.26303,274.94026 C 565.36965,271.87668 551.13488,265.65048 541.44873,263.6492 C 522.37202,259.70771 502.41425,265.26738 487.84698,278.58105 C 473.94097,291.29038 467.72917,305.1896 467.563,323.96761 C 467.5098,329.97976 467.33493,334.86985 467.17443,334.83448 C 467.01391,334.79911 463.50871,331.66296 459.38509,327.86525 L 459.3851,327.86526 z"
   id="path2417" /><path
   style="fill:#000080"
   d="M 593.58081,481.85943 C 594.2361,471.35553 593.76879,466.16311 591.56298,459.43898 C 585.3087,440.37357 571.78405,425.87867 553.7693,418.93391 C 535.43895,411.86748 508.53798,415.44118 495.12902,426.72408 C 492.43323,428.99244 489.97174,430.5755 489.65906,430.24199 C 489.34636,429.9085 490.17535,424.53441 491.50125,418.2996 C 493.84039,407.29998 493.57908,386.46533 490.98683,377.28824 C 489.93263,373.55613 489.99134,373.56455 497.83624,378.27276 C 509.07066,385.01522 518.97584,387.2617 533.7092,386.40881 C 572.88633,384.14089 599.97508,346.26186 589.65495,308.17814 C 588.95517,305.59592 589.88206,305.98853 594.22669,310.11475 C 608.77921,323.93576 636.03618,329.18716 655.80585,321.97877 C 661.15482,320.02845 665.73155,318.67605 665.97636,318.97344 C 666.921,320.12099 673.31673,349.25579 675.16028,360.80972 C 680.18102,392.27545 675.71556,450.18016 666.07987,478.55867 C 665.57381,480.04902 663.3846,479.91532 656.93568,478.00019 C 643.94654,474.14287 624.83639,475.51172 612.63158,481.17373 C 607.28745,483.65299 600.6229,487.89717 597.82147,490.6053 L 592.72798,495.52918 L 593.58081,481.85943 z"
   id="path2419" /><path
   style="fill:#000080"
   d="M 593.58081,481.85943 C 594.2361,471.35553 593.76879,466.16311 591.56298,459.43898 C 585.3087,440.37357 571.78405,425.87867 553.7693,418.93391 C 535.43895,411.86748 508.53798,415.44118 495.12902,426.72408 C 492.43323,428.99244 489.97174,430.5755 489.65906,430.24199 C 489.34636,429.9085 490.17535,424.53441 491.50125,418.2996 C 493.84039,407.29998 493.57908,386.46533 490.98683,377.28824 C 489.93263,373.55613 489.99134,373.56455 497.83624,378.27276 C 509.07066,385.01522 518.97584,387.2617 533.7092,386.40881 C 572.88633,384.14089 599.97508,346.26186 589.65495,308.17814 C 588.95517,305.59592 589.88206,305.98853 594.22669,310.11475 C 608.77921,323.93576 636.03618,329.18716 655.80585,321.97877 C 661.15482,320.02845 665.73155,318.67605 665.97636,318.97344 C 666.921,320.12099 673.31673,349.25579 675.16028,360.80972 C 680.18102,392.27545 675.71556,450.18016 666.07987,478.55867 C 665.57381,480.04902 663.3846,479.91532 656.93568,478.00019 C 643.94654,474.14287 624.83639,475.51172 612.63158,481.17373 C 607.28745,483.65299 600.6229,487.89717 597.82147,490.6053 L 592.72798,495.52918 L 593.58081,481.85943 z"
   id="path2421" /><path
   style="fill:#000080"
   d="M 203.38704,493.40052 C 196.46026,486.31811 186.93449,481.0761 175.38462,477.99085 C 164.78593,475.15972 156.33793,475.23333 144.72517,478.25807 C 139.51252,479.61582 134.93114,480.41023 134.54439,480.02348 C 133.00356,478.48264 127.46507,454.62917 125.10102,439.35223 C 122.15019,420.28351 121.78421,379.87359 124.40434,362.42915 C 126.12632,350.96439 132.35283,321.71725 133.30245,320.63291 C 133.54363,320.35751 137.95171,321.35631 143.09819,322.85244 C 156.28517,326.68601 172.42177,325.43739 185.49116,319.57221 C 191.04032,317.08191 196.44211,314.00623 197.49513,312.73741 C 198.54818,311.4686 200.56279,309.81336 201.97208,309.05914 C 204.21879,307.85674 204.54789,309.51331 204.64384,322.50787 C 204.78614,341.78207 208.83435,352.53992 220.81419,365.47958 C 232.63456,378.247 245.11911,383.97441 262.93286,384.80198 C 278.35921,385.51864 289.4616,382.72107 300.34745,375.3743 C 304.42223,372.62428 307.95551,370.59064 308.19919,370.85513 C 308.44288,371.11964 307.55817,376.43725 306.23318,382.67206 C 303.92852,393.51692 304.17138,410.73109 306.80034,422.86772 L 307.78983,427.43584 L 299.8868,422.69294 C 288.86112,416.07595 278.95555,413.80026 264.13325,414.47895 C 253.77749,414.95313 249.432,416.04329 240.6372,420.37339 C 215.05715,432.96771 200.5629,463.13828 207.40186,489.55466 C 208.78539,494.89879 209.79935,499.33198 209.65506,499.4062 C 209.51079,499.48042 206.69015,496.77788 203.38703,493.40052 L 203.38704,493.40052 z"
   id="path2423" /><path
   style="fill:#000080"
   d="M 328.14321,321.33266 C 327.57521,308.34541 326.74727,304.73545 322.23432,295.56832 C 304.57577,259.69874 257.50876,249.66863 226.48695,275.16431 C 223.41914,277.68565 220.76504,279.58648 220.58896,279.38844 C 220.41287,279.1904 220.83435,275.38462 221.52559,270.93117 C 224.39545,252.44186 217.53237,232.26151 203.65516,218.38429 L 195.80713,210.53623 L 208.26794,198.3114 C 222.59615,184.25449 237.15802,172.94534 254.43845,162.45415 C 279.03513,147.52115 318.36904,131.11814 331.37532,130.36998 C 336.77057,130.05963 337.17898,130.39364 338.40625,136.11997 C 342.58998,155.64081 360.19932,174.23443 380.2004,180.25025 L 385.82593,181.94227 L 378.58097,184.11111 C 374.59626,185.30398 367.4681,188.8463 362.74062,191.98293 C 330.81202,213.16719 326.3456,259.69315 353.62211,286.96964 C 361.85216,295.19969 378.15819,304.12606 384.96627,304.12828 C 391.03404,304.13025 388.00975,305.73551 377.17734,308.26254 C 363.31011,311.49754 347.90118,319.41493 337.59513,328.60057 L 328.80377,336.43613 L 328.14321,321.33266 z"
   id="path2425" /><path
   style="fill:#000080"
   d=""
   id="path2427" /><path
   style="fill:#ffff00"
   d="M 377.37208,486.40168 C 347.50112,479.1679 320.859,452.92947 313.08695,423.09061 C 311.72314,417.85457 310.60729,407.11124 310.60729,399.21655 C 310.60729,357.7548 340.09164,321.69218 381.05263,313.05412 C 387.28745,311.73927 395.30364,310.66353 398.8664,310.66353 C 409.53057,310.66353 427.3372,315.11354 438.54251,320.5789 C 453.09407,327.67639 471.96408,346.63377 478.58794,360.80972 C 495.33211,396.6446 488.70437,435.25572 461.03456,463.06986 C 449.29768,474.86797 433.15848,483.79226 417.81503,486.96847 C 406.67777,489.27398 388.16128,489.01445 377.37208,486.40167 L 377.37208,486.40168 z"
   id="path2429" /></svg>